<svg width="933" height="181" viewBox="0 0 933 181" fill="none" xmlns="http://www.w3.org/2000/svg">
<g clip-path="url(#clip0_3_5)">
<g filter="url(#filter0_d_3_5)">
<path d="M71.2133 0C31.9443 0 0 31.9114 0 71.1398V142.218H45.5525V142.255H71.2133C110.47 142.267 142.414 110.356 142.414 71.1398C142.402 31.9114 110.47 0 71.2133 0ZM106.012 79.9619C103.746 82.2256 100.634 83.6205 97.1803 83.6205H83.7069V97.08C83.7069 103.981 78.1093 109.561 71.2133 109.561C67.7592 109.561 64.6358 108.166 62.3698 105.914C60.1038 103.651 58.7075 100.531 58.7075 97.08V83.6205H45.234C38.3381 83.6205 32.7405 78.0287 32.7405 71.1398C32.7405 67.6893 34.1368 64.5691 36.4028 62.3055C38.6565 60.0418 41.7922 58.6469 45.234 58.6469H58.7075V45.1874C58.7075 38.2985 64.3051 32.7067 71.2133 32.7067C74.6674 32.7067 77.7785 34.1016 80.0445 36.3652C82.3105 38.6167 83.7069 41.7491 83.7069 45.1874V58.6469H97.1803C104.076 58.6469 109.674 64.2387 109.674 71.1398C109.674 74.5904 108.278 77.6983 106.012 79.9619Z" fill="#42E2B7"/>
</g>
<g filter="url(#filter1_d_3_5)">
<path d="M230.836 27.4086C226.647 27.4086 222.924 29.2317 220.462 32.1439C220.29 32.3641 220.119 32.5844 219.959 32.8046C219.739 33.0983 219.531 33.4042 219.335 33.7223C219.004 34.2852 218.698 34.8603 218.441 35.4598C218.281 35.8636 218.122 36.2674 217.987 36.6834C217.987 36.6834 217.987 36.6875 217.987 36.6956C217.865 37.1239 217.755 37.5399 217.657 37.9804C217.485 38.8614 217.387 39.7669 217.387 40.6968C217.387 48.1852 223.352 54.1319 230.836 54.1319C232.061 54.1319 233.237 53.9728 234.364 53.6547C234.719 53.5568 235.074 53.4467 235.417 53.3243C235.417 53.3243 235.442 53.3243 235.466 53.3121C240.525 51.4277 244.138 46.5334 244.138 40.6968C244.138 33.2084 238.185 27.4086 230.836 27.4086ZM237.426 42.3609C236.997 42.7892 236.397 43.0583 235.748 43.0583H233.2V45.5912C233.2 46.9004 232.147 47.9527 230.836 47.9527C230.187 47.9527 229.599 47.6958 229.17 47.2675C228.754 46.8393 228.485 46.2519 228.485 45.5912V43.0583H225.937C224.626 43.0583 223.573 41.9938 223.573 40.6968C223.573 40.0361 223.83 39.4487 224.259 39.0205C224.687 38.5922 225.275 38.3353 225.937 38.3353H228.485V35.7902C228.485 34.4932 229.538 33.4287 230.836 33.4287C231.498 33.4287 232.086 33.6978 232.514 34.1261C232.943 34.5544 233.2 35.1417 233.2 35.7902V38.3353H235.748C237.059 38.3353 238.112 39.3876 238.112 40.6968C238.112 41.3453 237.842 41.9326 237.426 42.3609ZM190.783 66.0497V59.944C190.783 53.3733 192.768 48.332 200.876 48.332H207.441V28.1672C203.779 27.5554 200.105 27.2495 196.895 27.2495C179 27.2495 167.229 37.1851 167.229 59.944V66.0497H156.683V85.6027H167.229V142.427H190.783V85.6027H218.918V142.427H242.619V66.0497H190.783Z" fill="#070119"/>
<path d="M305.714 63.6025C295.769 63.6025 287.06 67.4324 282.32 73.9909L280.788 66.0497H258.619V142.427H282.16V100.58C282.16 91.0967 288.125 84.991 297.459 84.991C305.555 84.991 310.908 91.2558 310.908 100.873V142.427H334.462V95.2325C334.462 75.2145 323.904 63.6025 305.714 63.6025Z" fill="#070119"/>
<path d="M406.287 27.2495V73.0731C401.853 67.4324 392.826 63.6025 383.345 63.6025C360.11 63.6025 345.583 80.4147 345.583 104.691C345.583 128.967 359.804 144.409 381.827 144.409C392.826 144.409 402.306 139.673 406.434 132.65L407.659 142.427H429.829V27.2495H406.287ZM387.473 122.873C376.315 122.873 369.284 115.079 369.284 103.785C369.284 92.4916 376.315 84.685 387.473 84.685C398.632 84.685 406.14 92.3203 406.14 103.785C406.14 115.25 398.485 122.873 387.473 122.873Z" fill="#070119"/>
<path d="M538.594 63.6025C527.582 63.6025 518.555 68.9497 514.586 77.0499C510.152 68.9497 502.803 63.6025 491.339 63.6025C479.874 63.6025 472.843 68.6438 469.009 73.9909L467.491 66.0497H445.468V142.427H469.009V101.485C469.009 88.6618 475.893 84.991 482.618 84.991C490.114 84.991 495.013 89.5795 495.013 99.0501V142.427H518.555V101.485C518.555 88.5027 525.292 84.8441 532.016 84.8441C539.5 84.8441 544.546 89.4204 544.546 99.0501V142.427H568.1V92.4794C568.1 75.0676 558.314 63.6025 538.594 63.6025Z" fill="#070119"/>
<path d="M632.138 66.0497L613.643 115.079L596.973 66.0497H571.74L602.484 145.02L601.1 148.691C598.05 156.938 594.682 159.386 586.733 159.386H573.737V179.085C578.318 180.468 583.671 181.227 589.329 181.227C602.791 181.227 611.352 174.656 617.771 159.08L656.611 66.0497H632.138Z" fill="#070119"/>
<path d="M716.787 27.2495V73.0731C712.353 67.4324 703.326 63.6025 693.846 63.6025C670.61 63.6025 656.083 80.4147 656.083 104.691C656.083 128.967 670.304 144.409 692.315 144.409C703.326 144.409 712.807 139.673 716.934 132.65L718.159 142.427H740.329V27.2495H716.787ZM697.974 122.873C686.815 122.873 679.784 115.079 679.784 103.785C679.784 92.4916 686.815 84.6851 697.974 84.6851C709.132 84.6851 716.628 92.3203 716.628 103.785C716.628 115.25 708.985 122.873 697.974 122.873Z" fill="#070119"/>
<path d="M794.151 63.7616C769.678 63.7616 751.942 79.9498 751.942 104.091C751.942 128.233 769.678 144.262 794.151 144.262C818.623 144.262 836.2 128.221 836.2 104.091C836.2 79.962 818.464 63.7616 794.151 63.7616ZM794.151 123.179C783.139 123.179 775.643 115.544 775.643 103.932C775.643 92.3203 783.139 84.8441 794.151 84.8441C805.162 84.8441 812.499 92.4794 812.499 103.932C812.499 115.385 805.003 123.179 794.151 123.179Z" fill="#070119"/>
<path d="M883.416 123.338C873.323 123.338 867.371 116.156 867.371 103.932C867.371 91.7085 873.789 84.6851 883.722 84.6851C891.831 84.6851 896.571 88.3559 898.249 95.9911H921.95C920.419 75.9731 905.439 63.6025 882.816 63.6025C860.193 63.6025 843.67 80.4147 843.67 103.932C843.67 127.45 859.262 144.409 883.416 144.409C904.827 144.409 920.419 131.28 921.95 112.032H898.249C896.73 119.521 891.672 123.338 883.416 123.338Z" fill="#070119"/>
<path d="M230.837 27.2495C226.673 27.2495 222.937 29.1583 220.463 32.1439C220.291 32.3641 220.12 32.5844 219.961 32.8046C219.74 33.0983 219.532 33.4042 219.336 33.7223C219.005 34.2852 218.699 34.8603 218.442 35.4598C218.283 35.8636 218.123 36.2674 217.989 36.6834C217.989 36.6834 217.989 36.6875 217.989 36.6956C217.866 37.1239 217.756 37.5399 217.658 37.9804C217.486 38.8614 217.388 39.7669 217.388 40.6968V54.1319H230.837C232.062 54.1319 233.238 53.9728 234.365 53.6547C234.72 53.569 235.075 53.4589 235.418 53.3243C235.418 53.3243 235.443 53.3243 235.467 53.3121C240.612 51.4277 244.299 46.4844 244.299 40.6968C244.299 33.2818 238.26 27.2495 230.837 27.2495ZM233.201 43.0583V45.5912C233.201 46.9004 232.148 47.9527 230.837 47.9527C230.188 47.9527 229.6 47.6958 229.172 47.2675C228.755 46.8393 228.486 46.2519 228.486 45.5912V43.0583H225.938C224.627 43.0583 223.574 41.9938 223.574 40.6968C223.574 40.0361 223.831 39.4487 224.26 39.0205C224.689 38.5922 225.277 38.3353 225.938 38.3353H228.486V35.7902C228.486 34.4932 229.539 33.4287 230.837 33.4287C231.499 33.4287 232.087 33.6978 232.515 34.1261C232.944 34.5544 233.201 35.1417 233.201 35.7902V38.3353H235.749C237.06 38.3353 238.113 39.3876 238.113 40.6968C238.113 41.3453 237.844 41.9326 237.427 42.3609C236.998 42.7892 236.398 43.0583 235.749 43.0583H233.201Z" fill="#42E2B7"/>
</g>
</g>
<defs>
<filter id="filter0_d_3_5" x="-15" y="-10" width="182.414" height="182.255" filterUnits="userSpaceOnUse" color-interpolation-filters="sRGB">
<feFlood flood-opacity="0" result="BackgroundImageFix"/>
<feColorMatrix in="SourceAlpha" type="matrix" values="0 0 0 0 0 0 0 0 0 0 0 0 0 0 0 0 0 0 127 0" result="hardAlpha"/>
<feOffset dx="5" dy="10"/>
<feGaussianBlur stdDeviation="10"/>
<feComposite in2="hardAlpha" operator="out"/>
<feColorMatrix type="matrix" values="0 0 0 0 0 0 0 0 0 0 0 0 0 0 0 0 0 0 0.15 0"/>
<feBlend mode="normal" in2="BackgroundImageFix" result="effect1_dropShadow_3_5"/>
<feBlend mode="normal" in="SourceGraphic" in2="effect1_dropShadow_3_5" result="shape"/>
</filter>
<filter id="filter1_d_3_5" x="141.683" y="17.2495" width="805.267" height="193.977" filterUnits="userSpaceOnUse" color-interpolation-filters="sRGB">
<feFlood flood-opacity="0" result="BackgroundImageFix"/>
<feColorMatrix in="SourceAlpha" type="matrix" values="0 0 0 0 0 0 0 0 0 0 0 0 0 0 0 0 0 0 127 0" result="hardAlpha"/>
<feOffset dx="5" dy="10"/>
<feGaussianBlur stdDeviation="10"/>
<feComposite in2="hardAlpha" operator="out"/>
<feColorMatrix type="matrix" values="0 0 0 0 0 0 0 0 0 0 0 0 0 0 0 0 0 0 0.15 0"/>
<feBlend mode="normal" in2="BackgroundImageFix" result="effect1_dropShadow_3_5"/>
<feBlend mode="normal" in="SourceGraphic" in2="effect1_dropShadow_3_5" result="shape"/>
</filter>
<clipPath id="clip0_3_5">
<rect width="969" height="181" fill="white"/>
</clipPath>
</defs>
</svg>
